<svg xmlns="http://www.w3.org/2000/svg" version="1.1" xmlnsXlink="http://www.w3.org/1999/xlink" xmlnsSvgjs="http://svgjs.dev/svgjs" width="2000" height="2185" viewBox="0 0 2000 2185"><g transform="matrix(1,0,0,1,1.0486920587890154,0.8846153846152447)"><svg viewBox="0 0 226 247" data-background-color="#ffffff" preserveAspectRatio="xMidYMid meet" height="2185" width="2000" xmlns="http://www.w3.org/2000/svg" xmlnsXlink="http://www.w3.org/1999/xlink"><g id="tight-bounds" transform="matrix(1,0,0,1,-0.1185022026431568,-0.09999999999999432)"><svg viewBox="0 0 226.2370044052863 247.2" height="247.2" width="226.2370044052863"><g><svg viewBox="0 0 226.2370044052863 247.2" height="247.2" width="226.2370044052863"><g><svg viewBox="0 0 226.2370044052863 247.2" height="247.2" width="226.2370044052863"><g id="textblocktransform"><svg viewBox="0 0 226.2370044052863 247.2" height="247.2" width="226.2370044052863" id="textblock"><g><svg viewBox="0 0 226.2370044052863 247.2" height="247.2" width="226.2370044052863"><g transform="matrix(1,0,0,1,0,0)"><svg width="226.2370044052863" viewBox="1.6 -44.9 41.55 45.4" height="247.2" data-palette-color="#1e55b3"><path d="M22.2 0.5Q21.6 0.5 21.6-0.1L21.6-0.1Q21.6-0.2 21.8-1.2L21.8-1.2Q22.2-3.45 22.2-4.45L22.2-4.45Q22.2-5.55 21.75-6.8L21.75-6.8Q20.9-9.4 18.7-13.2L18.7-13.2 16.75-16.8Q14.75-20.5 13.05-24.35L13.05-24.35 12.6-25.4 12.5-25.4 9.35-5.5Q9.2-4.15 8.55-3.4L8.55-3.4 8.55-3.35Q9.9-2.9 10.55-2.9L10.55-2.9Q11.25-2.9 11.8-3.18 12.35-3.45 12.5-3.45L12.5-3.45Q12.75-3.45 12.75-3.15L12.75-3.15Q12.75-2.7 12.1-2.05L12.1-2.05Q10.2 0 9 0L9 0Q8.55 0 7.55-0.4L7.55-0.4Q7.4-0.45 6.83-0.65 6.25-0.85 5.7-0.85L5.7-0.85Q4.9-0.85 4.1-0.43 3.3 0 3.15 0L3.15 0Q2.9 0 2.9-0.45L2.9-0.45Q2.9-0.95 3.23-1.55 3.55-2.15 4.05-2.55L4.05-2.55Q5.2-3.55 5.6-4 6-4.45 6.23-5.13 6.45-5.8 6.7-7.5L6.7-7.5 10.5-31.5 8.9-31.6Q7.85-31.75 6.8-31.75L6.8-31.75Q5.35-31.75 4.35-31.3 3.35-30.85 2.65-29.9L2.65-29.9Q2.55-29.75 2.3-29.38 2.05-29 1.85-29L1.85-29Q1.6-29 1.6-29.45L1.6-29.45Q1.6-29.95 1.75-30.3L1.75-30.3Q2.25-32.4 3.9-33.55 5.55-34.7 7.95-34.7L7.95-34.7 9.6-34.65Q10.9-34.55 11.8-34.55L11.8-34.55Q12.7-34.55 13.7-34.65L13.7-34.65 14.75-34.7Q14.5-33.45 14.5-32.6L14.5-32.6Q14.5-30.5 15.53-27.7 16.55-24.9 18.7-20.9L18.7-20.9 21.5-15.6Q23.25-12.45 24.1-10.35L24.1-10.35 24.2-10.35 26.95-28.7Q27.7-33.55 29.13-36.7 30.55-39.85 32.75-41.6L32.75-41.6Q34.35-42.95 36.13-43.58 37.9-44.2 40.85-44.45L40.85-44.45Q41.35-44.5 42.3-44.7L42.3-44.7Q42.75-44.9 42.9-44.9L42.9-44.9Q43.15-44.9 43.15-44.6L43.15-44.6Q43.15-44 42.45-43.25 41.75-42.5 40.05-42.3L40.05-42.3Q39.75-42.25 38.53-42.13 37.3-42 36.27-41.5 35.25-41 34.35-40.05L34.35-40.05Q32.75-38.3 31.8-35.65 30.85-33 30.25-29.4L30.25-29.4 26.35-5.45Q26.2-4.35 25.43-2.95 24.65-1.55 23.73-0.53 22.8 0.5 22.2 0.5L22.2 0.5Z" opacity="1" transform="matrix(1,0,0,1,0,0)" fill="#ffffff" class="wordmark-text-0" data-fill-palette-color="primary" id="text-0"></path></svg></g></svg></g></svg></g></svg></g><g></g></svg></g><defs></defs></svg><rect width="226.2370044052863" height="247.2" fill="none" stroke="none" visibility="hidden"></rect></g></svg></g></svg>